<?xml version="1.0" encoding="UTF-8"?>
<svg xmlns="http://www.w3.org/2000/svg" id="Ebene_1" data-name="Ebene 1" viewBox="0 0 265 61.03">
  <defs>
    <style>.cls-1{fill:#008bd2;}</style>
  </defs>
  <path class="cls-1" d="M564.43,379.39H550.5a27.76,27.76,0,0,1,25.9-25.91v13.93A13.88,13.88,0,0,0,564.43,379.39Zm0,3.56H550.5a27.74,27.74,0,0,0,25.9,25.91V394.93A13.88,13.88,0,0,1,564.43,383Zm15.54,12v13.93A27.74,27.74,0,0,0,605.87,383H591.94A13.88,13.88,0,0,1,580,394.93Zm12-15.54h13.93A27.76,27.76,0,0,0,580,353.48v13.93A13.88,13.88,0,0,1,591.94,379.39Zm48-9a10.71,10.71,0,1,0,0,21.41h18v-5.14H640a5.57,5.57,0,0,1,0-11.14h19.27v11.14h0v11.13h5.14v-27.4Zm-16.68,10.7A16.7,16.7,0,0,0,640,397.81h18v-5.14H640a11.56,11.56,0,1,1,0-23.12h25.23v28.26h5.14v-33.4H640A16.71,16.71,0,0,0,623.3,381.11Zm80.82,22.27H680v5.14h24.12a10.72,10.72,0,0,0,10.71-10.71v-27.4H690.43a10.71,10.71,0,0,0-10.7,10.7c0,5.9,4.8,10.71,13,10.71h15.78v-5.14H690.43a5.57,5.57,0,0,1,0-11.14H709.7v11.14h0v11.13h0A5.57,5.57,0,0,1,704.12,403.38Zm-30.36-22.27a16.7,16.7,0,0,0,16.7,16.7h18v-5.14H692.73c-8.64,0-13.83-5.18-13.83-11.56a11.58,11.58,0,0,1,11.56-11.56H715.7l0,28.26a11.58,11.58,0,0,1-11.56,11.57H680v5.14h24.1a16.7,16.7,0,0,0,16.73-16.66V364.41H690.46A16.7,16.7,0,0,0,673.76,381.11Zm74.81-16.7h-6.88a16.7,16.7,0,0,0-16.7,16.7v16.7h5.13V381.13a11.6,11.6,0,0,1,11.5-11.57h7A11.57,11.57,0,0,1,760.17,381h5.1A16.71,16.71,0,0,0,748.57,364.41Zm0,6h-6.92A10.72,10.72,0,0,0,731,381.1v16.71h5.14V381.08a5.57,5.57,0,0,1,5.57-5.56h6.88a5.56,5.56,0,0,1,5.56,5.51h5.19A10.73,10.73,0,0,0,748.61,370.39Zm36.74,21.45H798.8a10.71,10.71,0,0,0,10.7-10.7V364.41h-5.13v16.73a5.57,5.57,0,0,1-5.57,5.56H785.35a5.57,5.57,0,0,1-5.57-5.56V364.41h-5.14v16.73A10.72,10.72,0,0,0,785.35,391.84Zm25-27.43v16.7a11.59,11.59,0,0,1-11.5,11.56v.43l0-.43H785.35a11.57,11.57,0,0,1-11.56-11.56v-16.7h-5.14v16.7a16.7,16.7,0,0,0,16.7,16.7H798.8a16.7,16.7,0,0,0,16.7-16.7v-16.7Z" transform="translate(-550.5 -353.48)"></path>
</svg>
